<?xml version="1.0" encoding="UTF-8" standalone="no"?>
<!DOCTYPE svg PUBLIC "-//W3C//DTD SVG 1.1//EN" "http://www.w3.org/Graphics/SVG/1.1/DTD/svg11.dtd">
<svg width="100%" height="100%" viewBox="0 0 401 401" version="1.1" xmlns="http://www.w3.org/2000/svg" xmlns:xlink="http://www.w3.org/1999/xlink" xml:space="preserve" xmlns:serif="http://www.serif.com/" style="fill-rule:evenodd;clip-rule:evenodd;stroke-linejoin:round;stroke-miterlimit:2;">
    <path id="outline" d="M261.684,245.149C295.545,246.811 330.909,231.614 341.887,201.373C352.865,171.132 348.608,141.225 309.226,123.287C269.845,105.343 251.657,84.015 219.841,71.147C199.054,62.739 175.926,67.729 152.177,80.854C88.214,116.205 30.903,227.892 57.319,331.372C57.698,332.791 57.062,334.275 55.775,334.987C54.496,335.691 52.89,335.426 51.898,334.347C16.282,295.06 -3.759,241.788 0.593,184.791C8.998,74.728 105.178,-7.806 215.241,0.599C325.296,9.003 407.83,105.182 399.425,215.245C395.896,261.466 376.89,302.829 347.866,334.644C325.671,357.444 297.393,367.579 273.796,367.16C256.689,366.857 239.957,360.048 228.387,350.094C211.871,335.866 205.196,319.609 202.913,301.459C202.341,296.952 202.677,284.662 205.025,276.15C206.77,269.807 211.21,257.551 217.701,252.193C210.106,248.927 200.34,241.805 197.255,238.388C196.502,237.55 196.603,236.232 197.281,235.331C197.952,234.422 199.147,234.069 200.206,234.451C206.734,236.69 214.683,238.895 223.066,240.302C234.087,242.146 247.795,244.461 261.684,245.149ZM192.777,85.086C203.566,84.24 212.979,93.449 214.602,105.695C216.766,122.009 210.78,138.861 191.091,139.249C174.272,139.584 169.176,122.624 170.291,112.349C171.398,102.074 179.868,86.099 192.777,85.086Z"/>
</svg>
