<svg width="400" height="400" viewBox="0 0 400 400" fill="none" xmlns="http://www.w3.org/2000/svg">
<g clip-path="url(#clip0_40_138188)">
<path d="M200 325C165.562 325 137.5 296.938 137.5 262.5C137.5 253 139.625 243.75 143.688 235.438L122.375 199.938C89.125 198.562 62.5 171.062 62.5 137.5C62.5 103.938 90.5625 75 125 75C159.438 75 187.5 103.062 187.5 137.5C187.5 147 185.375 156.25 181.312 164.562L200 195.688L218.688 164.562C214.625 156.188 212.5 147 212.5 137.5C212.5 103.062 240.562 75 275 75C309.438 75 337.5 103.062 337.5 137.5C337.5 171.938 310.875 198.562 277.625 199.938L256.312 235.438C260.375 243.812 262.5 253 262.5 262.5C262.5 296.938 234.438 325 200 325Z" fill="#231F20"/>
<path d="M275 100C254.312 100 237.5 116.812 237.5 137.5C237.5 147.75 241.625 157 248.312 163.812L210.625 226.562C207.25 225.562 203.688 225 200 225C196.312 225 192.75 225.562 189.375 226.562L151.688 163.812C158.375 157.062 162.5 147.75 162.5 137.5C162.5 116.812 145.688 100 125 100C104.312 100 87.5 116.812 87.5 137.5C87.5 158.188 104.312 175 125 175C128.688 175 132.25 174.438 135.625 173.438L173.312 236.188C166.625 242.938 162.5 252.25 162.5 262.5C162.5 283.188 179.312 300 200 300C220.688 300 237.5 283.188 237.5 262.5C237.5 252.25 233.375 243 226.688 236.188L264.375 173.438C267.75 174.438 271.312 175 275 175C295.688 175 312.5 158.188 312.5 137.5C312.5 116.812 295.688 100 275 100Z" fill="white"/>
</g>
<defs>
<clipPath id="clip0_40_138188">
<rect width="275" height="250" fill="white" transform="translate(62.5 75)"/>
</clipPath>
</defs>
</svg>
