<svg width="558" height="558" viewBox="0 0 558 558" fill="none" xmlns="http://www.w3.org/2000/svg">
<path d="M538 279C538 422.042 422.042 538 279 538C135.958 538 20 422.042 20 279C20 135.958 135.958 20 279 20C422.042 20 538 135.958 538 279Z" fill="black"/>
<path d="M538 279C538 135.958 422.042 20 279 20C135.958 20 20 135.958 20 279C20 422.042 135.958 538 279 538C422.042 538 538 422.042 538 279ZM558 279C558 433.087 433.087 558 279 558C124.913 558 0 433.087 0 279C0 124.913 124.913 0 279 0C433.087 0 558 124.913 558 279Z" fill="white"/>
<path d="M380.265 157.766C408.285 157.766 431 180.481 431 208.501C431 236.521 408.285 259.237 380.265 259.237C372.186 259.237 363.889 262.293 359.854 269.292L326.585 326.992C319.363 339.519 322.683 355.193 327.107 368.959C328.68 373.854 329.529 379.073 329.529 384.491C329.529 412.512 306.814 435.228 278.794 435.228C250.773 435.228 228.059 412.512 228.059 384.491C228.059 379.074 228.908 373.855 230.48 368.961C234.903 355.196 238.222 339.523 231 326.997L197.728 269.29C193.693 262.292 185.398 259.237 177.32 259.237C149.3 259.237 126.585 236.521 126.585 208.501C126.585 180.481 149.3 157.766 177.32 157.766C205.341 157.766 228.056 180.481 228.057 208.501C228.057 213.919 227.207 219.138 225.634 224.033C221.21 237.799 217.89 253.472 225.112 265.998L258.381 323.699C262.416 330.699 270.714 333.756 278.794 333.756C286.87 333.756 295.164 330.7 299.199 323.703L332.471 265.996C339.694 253.471 336.374 237.797 331.951 224.032C330.378 219.137 329.528 213.918 329.528 208.501C329.529 180.481 352.244 157.766 380.265 157.766Z" fill="white"/>
</svg>
